<svg xmlns="http://www.w3.org/2000/svg" width="40" height="40"><g id="surface89524342"><path d="M1.602 40A1.599 1.599 0 010 38.398V1.602A1.6 1.6 0 011.602 0h36.796A1.6 1.6 0 0140 1.602v36.796A1.6 1.6 0 0138.398 40zM36.8 38.398c.883 0 1.597-.714 1.597-1.597V3.199c0-.883-.714-1.597-1.597-1.597H3.199c-.883 0-1.597.714-1.597 1.597v33.602c0 .883.714 1.597 1.597 1.597zm0 0" fill="#070707"/><path d="M33.965 6.371a3.073 3.073 0 00-1 .238 510.9 510.9 0 00-4.653 1.98c-2.593 1.11-5.964 2.552-9.308 3.985-6.684 2.864-13.25 5.68-13.25 5.68l.047-.02s-.395.133-.797.414c-.203.141-.418.32-.594.586a1.538 1.538 0 00-.258 1.032c.172 1.386 1.61 1.78 1.61 1.78h.004l6.418 2.2c.164.543 1.945 6.496 2.34 7.754.214.7.417 1.098.628 1.375.106.137.22.242.34.32a.91.91 0 00.153.075.035.035 0 00.02.003l-.017-.003a.158.158 0 01.036.02c.023.007.035.007.066.01.734.259 1.34-.218 1.34-.218l.027-.02 3.942-3.656 6.398 4.989.078.035c1.121.496 2.133.218 2.695-.235a2.78 2.78 0 00.782-1.047l.023-.062 4.7-24.5c.12-.547.14-1.024.027-1.45a1.68 1.68 0 00-.739-1.007 1.853 1.853 0 00-1.058-.258zm.039 1.465c.144-.004.25.012.281.031.035.02.05.016.082.137.031.121.047.375-.039.773l-.004.008-4.672 24.36c-.011.023-.109.25-.332.43-.226.187-.48.331-1.148.05l-6.996-5.457-.196-.156-.007.008-2.09-1.57L30.64 12.616a.731.731 0 00.101-.781.737.737 0 00-.672-.41.737.737 0 00-.379.12L12.68 22.892l-6.43-2.2s-.637-.355-.668-.605c0-.012-.008 0 .023-.05a.984.984 0 01.223-.204c.207-.148.445-.234.445-.234l.028-.008.023-.012 13.25-5.68c3.34-1.433 6.711-2.875 9.305-3.984 2.59-1.105 4.465-1.906 4.621-1.969.184-.07.363-.101.504-.11zm-7.797 7.766l-8.914 10.492-.004.004c-.016.015-.027.035-.043.05-.012.02-.027.04-.039.063a.778.778 0 00-.094.277v.004l-1.16 5.223c-.02-.055-.035-.074-.055-.14v-.005c-.367-1.183-2.05-6.797-2.28-7.57zm-7.91 12.21l1.601 1.204-2.351 2.18zm0 0"/></g></svg>